<svg width="123.457" xmlns="http://www.w3.org/2000/svg" height="63.98" id="screenshot-0953e374-dd61-808b-8004-bc221e387b92" viewBox="3223.937 1576 123.457 63.98" style="-webkit-print-color-adjust::exact" xmlns:xlink="http://www.w3.org/1999/xlink" fill="none" version="1.1">
  <g id="shape-0953e374-dd61-808b-8004-bc221e387b92" data-testid="svg-path">
    <g class="fills" id="fills-0953e374-dd61-808b-8004-bc221e387b92">
      <path d="M3226.238,1635.398L3237.662,1635.398C3236.818,1635.187,3236.185,1634.404,3236.185,1633.489L3236.185,1577.969C3236.195,1576.894,3237.079,1576.000,3238.164,1576.000L3320.731,1576.000C3321.806,1576.000,3322.700,1576.894,3322.700,1577.969L3322.700,1594.708L3319.606,1595.652L3319.606,1586.127L3239.561,1586.127L3239.561,1632.927L3319.606,1632.927L3319.606,1620.850L3320.631,1620.679C3321.324,1620.559,3321.977,1620.338,3322.570,1620.026L3322.710,1619.996L3322.710,1633.469C3322.710,1634.384,3322.077,1635.157,3321.233,1635.378L3333.180,1635.378C3334.446,1635.378,3335.481,1636.413,3335.481,1637.679C3335.481,1638.955,3334.446,1639.980,3333.180,1639.980L3226.238,1639.980C3224.972,1640.000,3223.937,1638.965,3223.937,1637.689C3223.937,1636.433,3224.972,1635.398,3226.238,1635.398ZZM3303.299,1611.265C3304.354,1612.401,3305.530,1614.721,3305.299,1616.731L3319.566,1614.310C3319.033,1610.271,3317.848,1606.563,3315.557,1603.418C3310.935,1606.553,3308.283,1608.502,3303.299,1611.265ZZM3280.221,1622.900C3286.893,1620.921,3294.026,1628.004,3299.703,1622.508C3301.210,1621.051,3302.234,1618.700,3302.104,1616.500C3302.044,1615.616,3301.812,1614.762,3301.340,1614.008C3301.129,1613.677,3300.878,1613.365,3300.587,1613.054C3296.950,1609.346,3291.313,1610.813,3287.606,1613.656C3284.200,1616.279,3281.758,1620.177,3280.221,1622.900ZZM3317.456,1603.057C3319.606,1606.463,3320.962,1609.999,3321.455,1613.687L3344.634,1601.118C3346.553,1600.254,3347.778,1599.369,3347.286,1596.858C3346.904,1596.034,3346.382,1595.481,3345.719,1595.200C3345.066,1594.919,3344.282,1594.919,3343.358,1595.200L3317.456,1603.057ZZM3246.423,1596.777L3312.985,1596.777C3313.377,1596.777,3313.728,1596.918,3314.000,1597.159C3313.206,1597.360,3312.442,1597.702,3311.739,1598.224L3311.598,1598.335C3308.413,1600.495,3310.614,1598.988,3309.780,1599.560L3309.277,1599.912L3247.990,1599.912L3247.990,1616.118L3276.815,1616.118C3276.082,1617.213,3275.439,1618.278,3274.886,1619.233L3246.423,1619.233C3245.559,1619.233,3244.866,1618.529,3244.866,1617.675L3244.866,1598.335C3244.866,1597.481,3245.559,1596.777,3246.423,1596.777ZZM3304.294,1593.150C3303.430,1593.150,3302.737,1592.457,3302.737,1591.593C3302.737,1590.729,3303.440,1590.036,3304.294,1590.036L3310.574,1590.036C3311.438,1590.036,3312.131,1590.729,3312.131,1591.593C3312.131,1592.457,3311.438,1593.150,3310.574,1593.150L3304.294,1593.150ZZM3288.781,1593.150C3287.917,1593.150,3287.224,1592.457,3287.224,1591.593C3287.224,1590.729,3287.927,1590.036,3288.781,1590.036L3295.061,1590.036C3295.925,1590.036,3296.618,1590.729,3296.618,1591.593C3296.618,1592.457,3295.915,1593.150,3295.061,1593.150L3288.781,1593.150ZZM3273.259,1593.150C3272.395,1593.150,3271.701,1592.457,3271.701,1591.593C3271.701,1590.729,3272.395,1590.036,3273.259,1590.036L3279.538,1590.036C3280.402,1590.036,3281.095,1590.729,3281.095,1591.593C3281.095,1592.457,3280.402,1593.150,3279.538,1593.150L3273.259,1593.150ZZM3249.156,1580.732C3250.020,1580.732,3250.723,1581.435,3250.723,1582.300C3250.723,1583.164,3250.020,1583.867,3249.156,1583.867C3248.292,1583.867,3247.588,1583.164,3247.588,1582.300C3247.588,1581.435,3248.302,1580.732,3249.156,1580.732ZZM3254.460,1580.732C3255.325,1580.732,3256.018,1581.435,3256.018,1582.300C3256.018,1583.164,3255.314,1583.867,3254.460,1583.867C3253.606,1583.867,3252.893,1583.164,3252.893,1582.300C3252.893,1581.435,3253.596,1580.732,3254.460,1580.732ZZM3243.861,1580.732C3244.725,1580.732,3245.428,1581.435,3245.428,1582.300C3245.428,1583.164,3244.725,1583.867,3243.861,1583.867C3242.997,1583.867,3242.293,1583.164,3242.293,1582.300C3242.293,1581.435,3242.997,1580.732,3243.861,1580.732ZZM3276.464,1636.262L3282.944,1636.262C3283.557,1636.262,3284.049,1636.765,3284.049,1637.368C3284.049,1637.980,3283.547,1638.473,3282.944,1638.473L3276.464,1638.473C3275.851,1638.473,3275.358,1637.970,3275.358,1637.368C3275.358,1636.745,3275.851,1636.262,3276.464,1636.262ZZ" fill-rule="evenodd" clip-rule="evenodd" style="fill:#ffffff">
      </path>
    </g>
  </g>
</svg>