<svg width="58.76" xmlns="http://www.w3.org/2000/svg" height="65.448" id="screenshot-0953e374-dd61-808b-8004-bc22361abc05" viewBox="3699.617 1575.274 58.76 65.448" style="-webkit-print-color-adjust::exact" xmlns:xlink="http://www.w3.org/1999/xlink" fill="none" version="1.1">
  <g id="shape-0953e374-dd61-808b-8004-bc22361abc05" data-testid="svg-path">
    <g class="fills" id="fills-0953e374-dd61-808b-8004-bc22361abc05">
      <path d="M3740.957,1617.264C3740.859,1617.506,3740.704,1617.734,3740.502,1617.935L3738.442,1619.995L3738.432,1620.006C3738.230,1620.207,3738.003,1620.362,3737.760,1620.460C3737.507,1620.569,3737.244,1620.626,3736.960,1620.626C3736.676,1620.626,3736.407,1620.569,3736.160,1620.460C3735.917,1620.352,3735.695,1620.197,3735.504,1619.995L3734.161,1618.668C3734.079,1618.705,3733.996,1618.751,3733.919,1618.787C3733.691,1618.896,3733.454,1618.988,3733.227,1619.076C3733.216,1619.087,3733.206,1619.087,3733.190,1619.087C3732.963,1619.180,3732.720,1619.257,3732.457,1619.340C3732.374,1619.365,3732.292,1619.397,3732.204,1619.412L3732.204,1621.049C3732.204,1621.333,3732.147,1621.601,3732.049,1621.849C3731.951,1622.092,3731.796,1622.314,3731.595,1622.510L3731.574,1622.531C3731.373,1622.722,3731.146,1622.877,3730.903,1622.975C3730.655,1623.073,3730.392,1623.130,3730.123,1623.130L3727.180,1623.130C3726.896,1623.130,3726.632,1623.073,3726.379,1622.975C3726.137,1622.877,3725.909,1622.722,3725.708,1622.521C3725.507,1622.319,3725.352,1622.092,3725.254,1621.849C3725.155,1621.601,3725.099,1621.338,3725.099,1621.049L3725.099,1619.180C3725.006,1619.143,3724.918,1619.118,3724.825,1619.082C3724.582,1618.988,3724.345,1618.880,3724.097,1618.772C3723.854,1618.653,3723.617,1618.544,3723.390,1618.426C3723.317,1618.389,3723.245,1618.343,3723.173,1618.307L3722.021,1619.479L3721.995,1619.505C3721.794,1619.696,3721.567,1619.841,3721.324,1619.939C3721.081,1620.037,3720.818,1620.083,3720.544,1620.083C3720.271,1620.083,3720.007,1620.037,3719.765,1619.939C3719.522,1619.841,3719.295,1619.701,3719.093,1619.510C3719.083,1619.500,3719.073,1619.500,3719.073,1619.489L3717.017,1617.408C3716.816,1617.217,3716.656,1616.990,3716.553,1616.747C3716.444,1616.505,3716.387,1616.231,3716.387,1615.937C3716.387,1615.653,3716.444,1615.384,3716.553,1615.126C3716.661,1614.873,3716.816,1614.656,3717.017,1614.465L3718.334,1613.148C3718.288,1613.055,3718.251,1612.978,3718.215,1612.895C3718.117,1612.668,3718.014,1612.430,3717.916,1612.178C3717.823,1611.940,3717.735,1611.687,3717.663,1611.434C3717.637,1611.351,3717.606,1611.264,3717.591,1611.181L3715.954,1611.181C3715.670,1611.181,3715.401,1611.124,3715.153,1611.026C3714.911,1610.928,3714.689,1610.773,3714.492,1610.572L3714.472,1610.551C3714.281,1610.350,3714.126,1610.122,3714.028,1609.890C3713.929,1609.642,3713.873,1609.379,3713.873,1609.110L3713.873,1606.167C3713.873,1605.583,3714.074,1605.093,3714.482,1604.695C3714.683,1604.494,3714.911,1604.339,3715.153,1604.241C3715.401,1604.143,3715.664,1604.086,3715.954,1604.086L3717.823,1604.086C3717.859,1603.993,3717.885,1603.905,3717.921,1603.812C3718.014,1603.570,3718.122,1603.332,3718.231,1603.084C3718.350,1602.836,3718.458,1602.604,3718.577,1602.377C3718.613,1602.304,3718.660,1602.232,3718.696,1602.160L3717.523,1601.008L3717.498,1600.982C3717.307,1600.781,3717.162,1600.554,3717.064,1600.311C3716.966,1600.068,3716.919,1599.805,3716.919,1599.531C3716.919,1599.258,3716.966,1598.994,3717.064,1598.752C3717.162,1598.509,3717.301,1598.282,3717.492,1598.080C3717.503,1598.070,3717.503,1598.060,3717.513,1598.060L3719.594,1595.999C3719.796,1595.798,3720.023,1595.643,3720.265,1595.545C3720.518,1595.437,3720.782,1595.380,3721.066,1595.380C3721.350,1595.380,3721.618,1595.437,3721.866,1595.545C3722.109,1595.653,3722.331,1595.808,3722.522,1596.010L3723.839,1597.326C3723.932,1597.280,3724.009,1597.244,3724.092,1597.208C3724.319,1597.110,3724.557,1597.006,3724.809,1596.908C3725.047,1596.815,3725.300,1596.727,3725.553,1596.655C3725.646,1596.629,3725.724,1596.598,3725.806,1596.583L3725.806,1594.946C3725.806,1594.662,3725.863,1594.393,3725.961,1594.146C3726.059,1593.903,3726.214,1593.681,3726.416,1593.485L3726.436,1593.464C3726.637,1593.273,3726.865,1593.118,3727.097,1593.020C3727.345,1592.922,3727.608,1592.865,3727.877,1592.865L3730.820,1592.865C3731.104,1592.865,3731.367,1592.922,3731.621,1593.020C3731.863,1593.118,3732.090,1593.273,3732.292,1593.474C3732.493,1593.676,3732.648,1593.903,3732.746,1594.146C3732.844,1594.393,3732.901,1594.657,3732.901,1594.946L3732.901,1596.815C3732.994,1596.851,3733.082,1596.877,3733.175,1596.913C3733.418,1597.006,3733.655,1597.115,3733.903,1597.223C3734.146,1597.342,3734.383,1597.450,3734.610,1597.569C3734.683,1597.605,3734.755,1597.652,3734.827,1597.688L3735.979,1596.536C3736.180,1596.335,3736.407,1596.180,3736.650,1596.072C3736.903,1595.963,3737.166,1595.906,3737.450,1595.906C3737.735,1595.906,3737.998,1595.963,3738.251,1596.072C3738.504,1596.180,3738.721,1596.325,3738.922,1596.536L3740.983,1598.597L3740.993,1598.607C3741.194,1598.809,3741.349,1599.036,3741.447,1599.278C3741.556,1599.531,3741.613,1599.795,3741.613,1600.079C3741.613,1600.363,3741.556,1600.631,3741.447,1600.879C3741.339,1601.127,3741.184,1601.344,3740.983,1601.535L3739.666,1602.878C3739.702,1602.960,3739.748,1603.043,3739.785,1603.120C3739.878,1603.327,3739.976,1603.554,3740.074,1603.802C3740.084,1603.812,3740.084,1603.822,3740.084,1603.838C3740.177,1604.075,3740.265,1604.329,3740.337,1604.582C3740.363,1604.664,3740.394,1604.752,3740.409,1604.835L3742.046,1604.835C3742.330,1604.835,3742.599,1604.891,3742.847,1604.989C3743.089,1605.088,3743.311,1605.243,3743.508,1605.444L3743.528,1605.465C3743.719,1605.666,3743.874,1605.893,3743.972,1606.126C3744.070,1606.373,3744.127,1606.637,3744.127,1606.905L3744.127,1609.849C3744.127,1610.133,3744.070,1610.396,3743.972,1610.649C3743.874,1610.892,3743.719,1611.119,3743.518,1611.331C3743.317,1611.532,3743.089,1611.687,3742.847,1611.785C3742.599,1611.883,3742.335,1611.940,3742.046,1611.940L3740.177,1611.940C3740.141,1612.033,3740.115,1612.121,3740.079,1612.214C3739.986,1612.456,3739.888,1612.694,3739.769,1612.942C3739.650,1613.184,3739.542,1613.422,3739.423,1613.649C3739.387,1613.722,3739.340,1613.794,3739.304,1613.866L3740.456,1615.018C3740.657,1615.219,3740.812,1615.446,3740.921,1615.689C3741.029,1615.942,3741.086,1616.205,3741.086,1616.489C3741.086,1616.773,3741.029,1617.037,3740.957,1617.264ZL3740.957,1617.264ZZM3723.720,1635.900C3717.162,1634.666,3711.399,1631.170,3707.273,1626.259C3703.116,1621.317,3700.617,1614.950,3700.617,1608.010C3700.617,1601.488,3702.822,1595.473,3706.535,1590.676C3710.320,1585.775,3715.675,1582.145,3721.851,1580.544L3722.770,1584.086C3717.394,1585.481,3712.731,1588.641,3709.432,1592.911C3706.210,1597.084,3704.294,1602.320,3704.294,1608.010C3704.294,1614.068,3706.468,1619.613,3710.072,1623.905C3713.521,1628.010,3718.288,1630.979,3723.725,1632.156L3723.725,1628.371L3730.640,1634.046L3723.725,1639.721L3723.720,1635.900ZZM3734.280,1580.126C3740.776,1581.350,3746.492,1584.789,3750.613,1589.632C3754.832,1594.590,3757.378,1601.008,3757.378,1608.010C3757.378,1614.171,3755.415,1619.872,3752.079,1624.524C3748.656,1629.301,3743.787,1632.967,3738.106,1634.893L3737.518,1633.158L3736.929,1631.423C3737.073,1631.377,3737.218,1631.325,3737.358,1631.273C3742.113,1629.564,3746.193,1626.430,3749.090,1622.391C3751.992,1618.343,3753.701,1613.381,3753.701,1608.015C3753.701,1601.902,3751.491,1596.309,3747.825,1592.003C3744.380,1587.954,3739.655,1585.037,3734.275,1583.864L3734.275,1587.629L3727.366,1581.949L3734.280,1576.274L3734.280,1580.126ZZM3734.135,1608.000C3734.135,1608.356,3734.099,1608.697,3734.037,1609.028L3734.027,1609.028C3733.965,1609.363,3733.862,1609.683,3733.738,1609.988C3733.604,1610.308,3733.449,1610.608,3733.268,1610.871C3733.097,1611.145,3732.886,1611.398,3732.659,1611.625C3732.421,1611.862,3732.178,1612.059,3731.905,1612.245C3731.641,1612.415,3731.342,1612.580,3731.022,1612.715C3731.011,1612.725,3730.996,1612.725,3730.985,1612.735C3730.696,1612.854,3730.386,1612.942,3730.066,1613.009C3729.731,1613.071,3729.395,1613.107,3729.039,1613.107C3728.682,1613.107,3728.342,1613.071,3728.011,1613.009C3727.675,1612.947,3727.355,1612.844,3727.051,1612.720C3726.731,1612.585,3726.431,1612.430,3726.168,1612.250C3725.894,1612.069,3725.641,1611.857,3725.414,1611.630C3725.186,1611.393,3724.985,1611.150,3724.804,1610.876C3724.634,1610.613,3724.469,1610.313,3724.334,1609.993C3724.324,1609.983,3724.324,1609.967,3724.314,1609.957C3724.195,1609.668,3724.107,1609.358,3724.040,1609.038C3723.978,1608.702,3723.942,1608.367,3723.942,1608.010C3723.942,1607.654,3723.978,1607.313,3724.040,1606.983C3724.102,1606.647,3724.205,1606.327,3724.329,1606.022C3724.464,1605.702,3724.619,1605.403,3724.799,1605.139C3724.970,1604.866,3725.181,1604.613,3725.409,1604.385C3725.646,1604.148,3725.889,1603.952,3726.162,1603.766C3726.426,1603.595,3726.725,1603.430,3727.046,1603.291C3727.056,1603.280,3727.071,1603.280,3727.082,1603.270C3727.381,1603.151,3727.691,1603.063,3728.006,1602.996C3728.342,1602.934,3728.677,1602.898,3729.034,1602.898C3729.390,1602.898,3729.731,1602.934,3730.061,1602.996C3730.397,1603.058,3730.717,1603.161,3731.022,1603.285C3731.342,1603.420,3731.641,1603.575,3731.905,1603.761C3732.178,1603.941,3732.431,1604.153,3732.659,1604.380C3732.886,1604.618,3733.087,1604.860,3733.268,1605.134C3733.438,1605.397,3733.604,1605.697,3733.738,1606.017C3733.748,1606.027,3733.748,1606.043,3733.758,1606.053C3733.877,1606.342,3733.965,1606.652,3734.032,1606.972C3734.099,1607.308,3734.135,1607.644,3734.135,1608.000ZZ" fill-rule="evenodd" clip-rule="evenodd" stroke-miterlimit="2.613" style="fill:#ffffff">
      </path>
    </g>
    <g fill-rule="evenodd" clip-rule="evenodd" stroke-miterlimit="2.613" id="strokes-0953e374-dd61-808b-8004-bc22361abc05" class="strokes">
      <g class="stroke-shape">
        <path d="M3740.957,1617.264C3740.859,1617.506,3740.704,1617.734,3740.502,1617.935L3738.442,1619.995L3738.432,1620.006C3738.230,1620.207,3738.003,1620.362,3737.760,1620.460C3737.507,1620.569,3737.244,1620.626,3736.960,1620.626C3736.676,1620.626,3736.407,1620.569,3736.160,1620.460C3735.917,1620.352,3735.695,1620.197,3735.504,1619.995L3734.161,1618.668C3734.079,1618.705,3733.996,1618.751,3733.919,1618.787C3733.691,1618.896,3733.454,1618.988,3733.227,1619.076C3733.216,1619.087,3733.206,1619.087,3733.190,1619.087C3732.963,1619.180,3732.720,1619.257,3732.457,1619.340C3732.374,1619.365,3732.292,1619.397,3732.204,1619.412L3732.204,1621.049C3732.204,1621.333,3732.147,1621.601,3732.049,1621.849C3731.951,1622.092,3731.796,1622.314,3731.595,1622.510L3731.574,1622.531C3731.373,1622.722,3731.146,1622.877,3730.903,1622.975C3730.655,1623.073,3730.392,1623.130,3730.123,1623.130L3727.180,1623.130C3726.896,1623.130,3726.632,1623.073,3726.379,1622.975C3726.137,1622.877,3725.909,1622.722,3725.708,1622.521C3725.507,1622.319,3725.352,1622.092,3725.254,1621.849C3725.155,1621.601,3725.099,1621.338,3725.099,1621.049L3725.099,1619.180C3725.006,1619.143,3724.918,1619.118,3724.825,1619.082C3724.582,1618.988,3724.345,1618.880,3724.097,1618.772C3723.854,1618.653,3723.617,1618.544,3723.390,1618.426C3723.317,1618.389,3723.245,1618.343,3723.173,1618.307L3722.021,1619.479L3721.995,1619.505C3721.794,1619.696,3721.567,1619.841,3721.324,1619.939C3721.081,1620.037,3720.818,1620.083,3720.544,1620.083C3720.271,1620.083,3720.007,1620.037,3719.765,1619.939C3719.522,1619.841,3719.295,1619.701,3719.093,1619.510C3719.083,1619.500,3719.073,1619.500,3719.073,1619.489L3717.017,1617.408C3716.816,1617.217,3716.656,1616.990,3716.553,1616.747C3716.444,1616.505,3716.387,1616.231,3716.387,1615.937C3716.387,1615.653,3716.444,1615.384,3716.553,1615.126C3716.661,1614.873,3716.816,1614.656,3717.017,1614.465L3718.334,1613.148C3718.288,1613.055,3718.251,1612.978,3718.215,1612.895C3718.117,1612.668,3718.014,1612.430,3717.916,1612.178C3717.823,1611.940,3717.735,1611.687,3717.663,1611.434C3717.637,1611.351,3717.606,1611.264,3717.591,1611.181L3715.954,1611.181C3715.670,1611.181,3715.401,1611.124,3715.153,1611.026C3714.911,1610.928,3714.689,1610.773,3714.492,1610.572L3714.472,1610.551C3714.281,1610.350,3714.126,1610.122,3714.028,1609.890C3713.929,1609.642,3713.873,1609.379,3713.873,1609.110L3713.873,1606.167C3713.873,1605.583,3714.074,1605.093,3714.482,1604.695C3714.683,1604.494,3714.911,1604.339,3715.153,1604.241C3715.401,1604.143,3715.664,1604.086,3715.954,1604.086L3717.823,1604.086C3717.859,1603.993,3717.885,1603.905,3717.921,1603.812C3718.014,1603.570,3718.122,1603.332,3718.231,1603.084C3718.350,1602.836,3718.458,1602.604,3718.577,1602.377C3718.613,1602.304,3718.660,1602.232,3718.696,1602.160L3717.523,1601.008L3717.498,1600.982C3717.307,1600.781,3717.162,1600.554,3717.064,1600.311C3716.966,1600.068,3716.919,1599.805,3716.919,1599.531C3716.919,1599.258,3716.966,1598.994,3717.064,1598.752C3717.162,1598.509,3717.301,1598.282,3717.492,1598.080C3717.503,1598.070,3717.503,1598.060,3717.513,1598.060L3719.594,1595.999C3719.796,1595.798,3720.023,1595.643,3720.265,1595.545C3720.518,1595.437,3720.782,1595.380,3721.066,1595.380C3721.350,1595.380,3721.618,1595.437,3721.866,1595.545C3722.109,1595.653,3722.331,1595.808,3722.522,1596.010L3723.839,1597.326C3723.932,1597.280,3724.009,1597.244,3724.092,1597.208C3724.319,1597.110,3724.557,1597.006,3724.809,1596.908C3725.047,1596.815,3725.300,1596.727,3725.553,1596.655C3725.646,1596.629,3725.724,1596.598,3725.806,1596.583L3725.806,1594.946C3725.806,1594.662,3725.863,1594.393,3725.961,1594.146C3726.059,1593.903,3726.214,1593.681,3726.416,1593.485L3726.436,1593.464C3726.637,1593.273,3726.865,1593.118,3727.097,1593.020C3727.345,1592.922,3727.608,1592.865,3727.877,1592.865L3730.820,1592.865C3731.104,1592.865,3731.367,1592.922,3731.621,1593.020C3731.863,1593.118,3732.090,1593.273,3732.292,1593.474C3732.493,1593.676,3732.648,1593.903,3732.746,1594.146C3732.844,1594.393,3732.901,1594.657,3732.901,1594.946L3732.901,1596.815C3732.994,1596.851,3733.082,1596.877,3733.175,1596.913C3733.418,1597.006,3733.655,1597.115,3733.903,1597.223C3734.146,1597.342,3734.383,1597.450,3734.610,1597.569C3734.683,1597.605,3734.755,1597.652,3734.827,1597.688L3735.979,1596.536C3736.180,1596.335,3736.407,1596.180,3736.650,1596.072C3736.903,1595.963,3737.166,1595.906,3737.450,1595.906C3737.735,1595.906,3737.998,1595.963,3738.251,1596.072C3738.504,1596.180,3738.721,1596.325,3738.922,1596.536L3740.983,1598.597L3740.993,1598.607C3741.194,1598.809,3741.349,1599.036,3741.447,1599.278C3741.556,1599.531,3741.613,1599.795,3741.613,1600.079C3741.613,1600.363,3741.556,1600.631,3741.447,1600.879C3741.339,1601.127,3741.184,1601.344,3740.983,1601.535L3739.666,1602.878C3739.702,1602.960,3739.748,1603.043,3739.785,1603.120C3739.878,1603.327,3739.976,1603.554,3740.074,1603.802C3740.084,1603.812,3740.084,1603.822,3740.084,1603.838C3740.177,1604.075,3740.265,1604.329,3740.337,1604.582C3740.363,1604.664,3740.394,1604.752,3740.409,1604.835L3742.046,1604.835C3742.330,1604.835,3742.599,1604.891,3742.847,1604.989C3743.089,1605.088,3743.311,1605.243,3743.508,1605.444L3743.528,1605.465C3743.719,1605.666,3743.874,1605.893,3743.972,1606.126C3744.070,1606.373,3744.127,1606.637,3744.127,1606.905L3744.127,1609.849C3744.127,1610.133,3744.070,1610.396,3743.972,1610.649C3743.874,1610.892,3743.719,1611.119,3743.518,1611.331C3743.317,1611.532,3743.089,1611.687,3742.847,1611.785C3742.599,1611.883,3742.335,1611.940,3742.046,1611.940L3740.177,1611.940C3740.141,1612.033,3740.115,1612.121,3740.079,1612.214C3739.986,1612.456,3739.888,1612.694,3739.769,1612.942C3739.650,1613.184,3739.542,1613.422,3739.423,1613.649C3739.387,1613.722,3739.340,1613.794,3739.304,1613.866L3740.456,1615.018C3740.657,1615.219,3740.812,1615.446,3740.921,1615.689C3741.029,1615.942,3741.086,1616.205,3741.086,1616.489C3741.086,1616.773,3741.029,1617.037,3740.957,1617.264ZL3740.957,1617.264ZZM3723.720,1635.900C3717.162,1634.666,3711.399,1631.170,3707.273,1626.259C3703.116,1621.317,3700.617,1614.950,3700.617,1608.010C3700.617,1601.488,3702.822,1595.473,3706.535,1590.676C3710.320,1585.775,3715.675,1582.145,3721.851,1580.544L3722.770,1584.086C3717.394,1585.481,3712.731,1588.641,3709.432,1592.911C3706.210,1597.084,3704.294,1602.320,3704.294,1608.010C3704.294,1614.068,3706.468,1619.613,3710.072,1623.905C3713.521,1628.010,3718.288,1630.979,3723.725,1632.156L3723.725,1628.371L3730.640,1634.046L3723.725,1639.721L3723.720,1635.900ZZM3734.280,1580.126C3740.776,1581.350,3746.492,1584.789,3750.613,1589.632C3754.832,1594.590,3757.378,1601.008,3757.378,1608.010C3757.378,1614.171,3755.415,1619.872,3752.079,1624.524C3748.656,1629.301,3743.787,1632.967,3738.106,1634.893L3737.518,1633.158L3736.929,1631.423C3737.073,1631.377,3737.218,1631.325,3737.358,1631.273C3742.113,1629.564,3746.193,1626.430,3749.090,1622.391C3751.992,1618.343,3753.701,1613.381,3753.701,1608.015C3753.701,1601.902,3751.491,1596.309,3747.825,1592.003C3744.380,1587.954,3739.655,1585.037,3734.275,1583.864L3734.275,1587.629L3727.366,1581.949L3734.280,1576.274L3734.280,1580.126ZZM3734.135,1608.000C3734.135,1608.356,3734.099,1608.697,3734.037,1609.028L3734.027,1609.028C3733.965,1609.363,3733.862,1609.683,3733.738,1609.988C3733.604,1610.308,3733.449,1610.608,3733.268,1610.871C3733.097,1611.145,3732.886,1611.398,3732.659,1611.625C3732.421,1611.862,3732.178,1612.059,3731.905,1612.245C3731.641,1612.415,3731.342,1612.580,3731.022,1612.715C3731.011,1612.725,3730.996,1612.725,3730.985,1612.735C3730.696,1612.854,3730.386,1612.942,3730.066,1613.009C3729.731,1613.071,3729.395,1613.107,3729.039,1613.107C3728.682,1613.107,3728.342,1613.071,3728.011,1613.009C3727.675,1612.947,3727.355,1612.844,3727.051,1612.720C3726.731,1612.585,3726.431,1612.430,3726.168,1612.250C3725.894,1612.069,3725.641,1611.857,3725.414,1611.630C3725.186,1611.393,3724.985,1611.150,3724.804,1610.876C3724.634,1610.613,3724.469,1610.313,3724.334,1609.993C3724.324,1609.983,3724.324,1609.967,3724.314,1609.957C3724.195,1609.668,3724.107,1609.358,3724.040,1609.038C3723.978,1608.702,3723.942,1608.367,3723.942,1608.010C3723.942,1607.654,3723.978,1607.313,3724.040,1606.983C3724.102,1606.647,3724.205,1606.327,3724.329,1606.022C3724.464,1605.702,3724.619,1605.403,3724.799,1605.139C3724.970,1604.866,3725.181,1604.613,3725.409,1604.385C3725.646,1604.148,3725.889,1603.952,3726.162,1603.766C3726.426,1603.595,3726.725,1603.430,3727.046,1603.291C3727.056,1603.280,3727.071,1603.280,3727.082,1603.270C3727.381,1603.151,3727.691,1603.063,3728.006,1602.996C3728.342,1602.934,3728.677,1602.898,3729.034,1602.898C3729.390,1602.898,3729.731,1602.934,3730.061,1602.996C3730.397,1603.058,3730.717,1603.161,3731.022,1603.285C3731.342,1603.420,3731.641,1603.575,3731.905,1603.761C3732.178,1603.941,3732.431,1604.153,3732.659,1604.380C3732.886,1604.618,3733.087,1604.860,3733.268,1605.134C3733.438,1605.397,3733.604,1605.697,3733.738,1606.017C3733.748,1606.027,3733.748,1606.043,3733.758,1606.053C3733.877,1606.342,3733.965,1606.652,3734.032,1606.972C3734.099,1607.308,3734.135,1607.644,3734.135,1608.000ZZ" style="fill:none;fill-opacity:none;stroke-width:0.5;stroke:#ffffff;stroke-opacity:1">
        </path>
      </g>
    </g>
  </g>
</svg>