<svg width="83.353" xmlns="http://www.w3.org/2000/svg" height="64.007" id="screenshot-0953e374-dd61-808b-8004-bc224dfa1b78" viewBox="4130.657 1576 83.353 64.007" style="-webkit-print-color-adjust::exact" xmlns:xlink="http://www.w3.org/1999/xlink" fill="none" version="1.1">
  <g id="shape-0953e374-dd61-808b-8004-bc224dfa1b78" data-testid="svg-path">
    <g class="fills" id="fills-0953e374-dd61-808b-8004-bc224dfa1b78">
      <path d="M4191.957,1593.962L4209.241,1593.962C4210.557,1593.962,4211.758,1594.498,4212.612,1595.359C4213.481,1596.228,4214.010,1597.421,4214.010,1598.731L4214.010,1635.238C4214.010,1636.554,4213.474,1637.755,4212.612,1638.609C4211.744,1639.478,4210.550,1640.007,4209.241,1640.007L4191.957,1640.007C4190.641,1640.007,4189.441,1639.471,4188.586,1638.609C4187.718,1637.741,4187.189,1636.547,4187.189,1635.238L4187.189,1598.724C4187.189,1597.408,4187.725,1596.207,4188.586,1595.353C4189.454,1594.484,4190.641,1593.962,4191.957,1593.962ZZM4207.545,1614.766L4199.521,1616.367L4201.142,1613.966C4198.544,1611.307,4195.695,1610.384,4192.337,1611.456C4195.837,1606.945,4200.599,1606.843,4204.377,1609.170L4206.033,1606.721L4207.545,1614.766ZZM4169.525,1602.733L4177.550,1601.132L4175.929,1603.533C4178.527,1606.192,4181.375,1607.115,4184.733,1606.043C4181.233,1610.554,4176.471,1610.656,4172.693,1608.329L4171.038,1610.778L4169.525,1602.733ZZM4132.726,1576.000L4204.710,1576.000C4205.849,1576.000,4206.779,1576.929,4206.779,1578.069L4206.779,1590.577L4202.383,1590.577L4202.383,1582.166C4202.383,1581.162,4201.562,1580.334,4200.552,1580.334L4136.877,1580.334C4135.873,1580.334,4135.046,1581.155,4135.046,1582.166L4135.046,1617.357C4135.046,1618.361,4135.867,1619.189,4136.877,1619.189L4182.685,1619.189L4182.685,1627.824L4132.726,1627.824C4131.586,1627.824,4130.657,1626.895,4130.657,1625.755L4130.657,1578.069C4130.657,1576.929,4131.586,1576.000,4132.726,1576.000ZZM4178.099,1630.680C4178.147,1633.929,4179.483,1636.832,4183.112,1639.125L4154.324,1639.125C4157.220,1637.022,4159.343,1634.465,4159.337,1630.680L4178.099,1630.680ZZM4168.718,1620.851C4170.183,1620.851,4171.377,1622.038,4171.377,1623.510C4171.377,1624.975,4170.183,1626.169,4168.718,1626.169C4167.253,1626.169,4166.059,1624.982,4166.059,1623.510C4166.059,1622.045,4167.246,1620.851,4168.718,1620.851ZZM4200.592,1634.146C4201.671,1634.146,4202.553,1635.014,4202.553,1636.106C4202.553,1637.185,4201.685,1638.067,4200.592,1638.067C4199.514,1638.067,4198.632,1637.198,4198.632,1636.106C4198.632,1635.028,4199.500,1634.146,4200.592,1634.146ZZM4189.197,1632.654L4211.995,1632.654L4211.995,1600.467L4189.197,1600.467L4189.197,1632.654ZZ" fill-rule="evenodd" clip-rule="evenodd" style="fill:#ffffff">
      </path>
    </g>
  </g>
</svg>