<svg width="55.651" xmlns="http://www.w3.org/2000/svg" height="64" id="screenshot-0953e374-dd61-808b-8004-bc21fc8abd06" viewBox="3257.839 2014.007 55.651 64" style="-webkit-print-color-adjust::exact" xmlns:xlink="http://www.w3.org/1999/xlink" fill="none" version="1.1">
  <g id="shape-0953e374-dd61-808b-8004-bc21fc8abd06" data-testid="svg-path">
    <g class="fills" id="fills-0953e374-dd61-808b-8004-bc21fc8abd06">
      <path d="M3278.474,2047.642C3277.714,2047.642,3277.099,2046.908,3277.099,2046.007C3277.099,2045.101,3277.714,2044.371,3278.474,2044.371L3296.646,2044.371C3297.406,2044.371,3298.021,2045.106,3298.021,2046.007C3298.021,2046.913,3297.406,2047.642,3296.646,2047.642L3278.474,2047.642ZZM3282.198,2074.726C3283.104,2074.726,3283.839,2075.460,3283.839,2076.366C3283.839,2077.272,3283.104,2078.007,3282.198,2078.007L3261.656,2078.007C3260.604,2078.007,3259.651,2077.580,3258.958,2076.887C3258.266,2076.194,3257.839,2075.241,3257.839,2074.189L3257.839,2017.825C3257.839,2016.772,3258.266,2015.819,3258.958,2015.127C3259.651,2014.434,3260.604,2014.007,3261.656,2014.007L3308.542,2014.007C3309.594,2014.007,3310.547,2014.439,3311.240,2015.127C3311.932,2015.819,3312.359,2016.772,3312.359,2017.825L3312.359,2043.939C3312.359,2044.845,3311.625,2045.580,3310.719,2045.580C3309.812,2045.580,3309.078,2044.845,3309.078,2043.939L3309.078,2017.825C3309.078,2017.679,3309.016,2017.543,3308.917,2017.450C3308.818,2017.351,3308.687,2017.288,3308.542,2017.288L3261.656,2017.288C3261.510,2017.288,3261.375,2017.351,3261.276,2017.444C3261.182,2017.548,3261.120,2017.679,3261.120,2017.825L3261.120,2074.184C3261.120,2074.330,3261.182,2074.465,3261.276,2074.559C3261.375,2074.658,3261.510,2074.720,3261.656,2074.720L3282.198,2074.726ZL3282.198,2074.726ZZM3309.245,2052.726C3308.979,2052.470,3308.672,2052.351,3308.318,2052.356C3307.964,2052.361,3307.661,2052.496,3307.411,2052.762L3305.375,2054.882L3311.089,2060.397L3313.146,2058.257C3313.391,2058.007,3313.495,2057.684,3313.490,2057.330C3313.484,2056.981,3313.359,2056.663,3313.109,2056.424L3309.245,2052.726ZZM3298.573,2073.387C3297.818,2073.627,3297.068,2073.877,3296.318,2074.121C3295.562,2074.371,3294.812,2074.627,3294.062,2074.877C3292.286,2075.460,3291.292,2075.783,3291.083,2075.840C3290.880,2075.903,3291.000,2075.069,3291.448,2073.335L3292.859,2067.892L3303.562,2056.757L3309.271,2062.252L3298.573,2073.387ZZM3278.474,2059.293C3277.714,2059.293,3277.094,2058.549,3277.094,2057.632C3277.094,2056.715,3277.714,2055.970,3278.474,2055.970L3287.427,2055.970C3288.187,2055.970,3288.807,2056.715,3288.807,2057.632C3288.807,2058.549,3288.187,2059.293,3287.427,2059.293L3278.474,2059.293ZZM3278.474,2036.017C3277.714,2036.017,3277.099,2035.283,3277.099,2034.382C3277.099,2033.476,3277.714,2032.746,3278.474,2032.746L3296.646,2032.746C3297.406,2032.746,3298.021,2033.481,3298.021,2034.382C3298.021,2035.288,3297.406,2036.017,3296.646,2036.017L3278.474,2036.017ZZM3270.589,2055.392C3271.661,2055.392,3272.526,2056.262,3272.526,2057.330C3272.526,2058.403,3271.656,2059.267,3270.589,2059.267C3269.516,2059.267,3268.651,2058.397,3268.651,2057.330C3268.651,2056.262,3269.521,2055.392,3270.589,2055.392ZZM3270.589,2043.924C3271.661,2043.924,3272.526,2044.793,3272.526,2045.861C3272.526,2046.934,3271.656,2047.799,3270.589,2047.799C3269.516,2047.799,3268.651,2046.929,3268.651,2045.861C3268.651,2044.793,3269.521,2043.924,3270.589,2043.924ZZM3270.589,2032.455C3271.661,2032.455,3272.526,2033.325,3272.526,2034.392C3272.526,2035.465,3271.656,2036.330,3270.589,2036.330C3269.516,2036.330,3268.651,2035.460,3268.651,2034.392C3268.651,2033.319,3269.521,2032.455,3270.589,2032.455ZZ" fill-rule="evenodd" clip-rule="evenodd" style="fill:#ffffff">
      </path>
    </g>
  </g>
</svg>