<svg width="65.616" xmlns="http://www.w3.org/2000/svg" height="64.001" id="screenshot-0953e374-dd61-808b-8004-bc226b9ec2f3" viewBox="3696.192 2014.007 65.616 64.001" style="-webkit-print-color-adjust::exact" xmlns:xlink="http://www.w3.org/1999/xlink" fill="none" version="1.1">
  <g id="shape-0953e374-dd61-808b-8004-bc226b9ec2f3" data-testid="svg-path">
    <g class="fills" id="fills-0953e374-dd61-808b-8004-bc226b9ec2f3">
      <path d="M3728.192,2014.007L3728.192,2014.007ZL3728.192,2014.007ZC3731.349,2014.008,3734.394,2014.464,3737.269,2015.314C3737.729,2015.450,3738.193,2015.599,3738.660,2015.760C3741.025,2016.578,3743.260,2017.664,3745.331,2018.980C3745.476,2019.072,3745.520,2019.266,3745.428,2019.411C3745.418,2019.426,3745.407,2019.440,3745.396,2019.453L3743.106,2022.389C3743.004,2022.519,3742.820,2022.547,3742.685,2022.456L3742.680,2022.452C3742.098,2022.093,3741.497,2021.753,3740.879,2021.433C3740.257,2021.112,3739.625,2020.814,3738.984,2020.542L3738.982,2020.541C3735.669,2019.135,3732.022,2018.358,3728.192,2018.358L3728.188,2018.358L3728.188,2018.357C3724.373,2018.357,3720.735,2019.131,3717.428,2020.531C3716.887,2020.759,3716.357,2021.004,3715.839,2021.263C3713.165,2022.600,3710.737,2024.360,3708.641,2026.456L3708.639,2026.458L3708.624,2026.472C3707.929,2027.168,3707.271,2027.901,3706.653,2028.668C3706.031,2029.440,3705.449,2030.246,3704.911,2031.084C3702.146,2035.388,3700.542,2040.510,3700.542,2046.007L3700.542,2046.010L3700.541,2046.010C3700.541,2049.826,3701.316,2053.463,3702.715,2056.771C3702.944,2057.312,3703.188,2057.841,3703.447,2058.359C3704.784,2061.032,3706.545,2063.462,3708.641,2065.557L3708.643,2065.560L3708.655,2065.572C3709.352,2066.268,3710.086,2066.927,3710.853,2067.545C3711.625,2068.167,3712.432,2068.749,3713.269,2069.287C3717.573,2072.051,3722.696,2073.655,3728.192,2073.655L3728.195,2073.655L3728.195,2073.657C3732.012,2073.656,3735.649,2072.882,3738.956,2071.483C3739.497,2071.255,3740.027,2071.010,3740.545,2070.751C3743.219,2069.414,3745.648,2067.653,3747.743,2065.557L3747.746,2065.555L3747.762,2065.539C3748.456,2064.844,3749.114,2064.111,3749.731,2063.346C3750.353,2062.574,3750.935,2061.767,3751.473,2060.929C3754.238,2056.625,3755.842,2051.503,3755.842,2046.007L3755.842,2046.002L3755.843,2046.002C3755.843,2043.695,3755.559,2041.452,3755.025,2039.307C3754.936,2038.950,3754.842,2038.603,3754.745,2038.268C3754.232,2036.502,3753.545,2034.808,3752.709,2033.207C3752.636,2033.069,3752.678,2032.901,3752.800,2032.811L3755.759,2030.472C3755.894,2030.365,3756.090,2030.388,3756.196,2030.523C3756.206,2030.535,3756.214,2030.548,3756.221,2030.560L3756.222,2030.560L3756.224,2030.565L3756.227,2030.571C3756.580,2031.211,3756.914,2031.866,3757.224,2032.534C3757.535,2033.203,3757.823,2033.882,3758.086,2034.571C3759.446,2038.123,3760.192,2041.979,3760.192,2046.008L3760.192,2046.011L3760.191,2046.011C3760.190,2050.427,3759.294,2054.637,3757.675,2058.464C3757.413,2059.085,3757.130,2059.699,3756.827,2060.302C3755.277,2063.402,3753.240,2066.213,3750.819,2068.635L3750.817,2068.637L3750.806,2068.648C3749.998,2069.455,3749.147,2070.218,3748.258,2070.935C3747.364,2071.655,3746.431,2072.328,3745.463,2072.950C3740.481,2076.150,3734.552,2078.007,3728.192,2078.007L3728.188,2078.007L3728.188,2078.006C3723.772,2078.006,3719.562,2077.110,3715.735,2075.491C3715.114,2075.229,3714.501,2074.945,3713.896,2074.642C3710.797,2073.093,3707.986,2071.055,3705.564,2068.635L3705.562,2068.632L3705.547,2068.617C3704.742,2067.810,3703.980,2066.961,3703.264,2066.073C3702.544,2065.180,3701.871,2064.247,3701.249,2063.278C3698.050,2058.295,3696.192,2052.367,3696.192,2046.007L3696.192,2046.003L3696.193,2046.003C3696.193,2041.587,3697.090,2037.378,3698.708,2033.550C3698.971,2032.929,3699.254,2032.316,3699.557,2031.711C3701.106,2028.612,3703.143,2025.801,3705.564,2023.379L3705.566,2023.377L3705.580,2023.365C3706.386,2022.559,3707.237,2021.796,3708.125,2021.080C3709.019,2020.360,3709.952,2019.687,3710.920,2019.065C3715.904,2015.864,3721.832,2014.007,3728.192,2014.007ZZM3745.889,2022.710L3754.844,2014.154L3755.440,2019.924L3761.808,2020.721L3752.219,2030.013L3747.553,2030.413L3728.934,2047.730L3727.218,2046.253L3744.854,2027.830L3745.889,2022.710ZZM3728.192,2035.878L3728.192,2035.878ZL3728.192,2035.878ZC3728.803,2035.880,3729.389,2035.931,3729.953,2036.031C3730.019,2036.042,3730.112,2036.060,3730.229,2036.084L3730.231,2036.084C3730.701,2036.180,3731.161,2036.310,3731.608,2036.470C3731.770,2036.528,3731.855,2036.706,3731.797,2036.868C3731.785,2036.900,3731.768,2036.929,3731.749,2036.955L3731.749,2036.955L3729.250,2040.162C3729.180,2040.252,3729.068,2040.292,3728.962,2040.278L3728.962,2040.279L3728.948,2040.277L3728.837,2040.264L3728.827,2040.262L3728.731,2040.252L3728.723,2040.251C3728.556,2040.237,3728.380,2040.229,3728.192,2040.229L3728.189,2040.229L3728.189,2040.227C3727.393,2040.228,3726.632,2040.390,3725.941,2040.683C3725.827,2040.731,3725.716,2040.783,3725.610,2040.835C3725.053,2041.114,3724.546,2041.482,3724.107,2041.921L3724.105,2041.923L3724.090,2041.936C3723.949,2042.078,3723.816,2042.228,3723.690,2042.385C3723.560,2042.545,3723.438,2042.715,3723.325,2042.890C3722.749,2043.788,3722.414,2044.859,3722.414,2046.007L3722.414,2046.010L3722.413,2046.010C3722.413,2046.807,3722.576,2047.567,3722.868,2048.257C3722.917,2048.372,3722.968,2048.483,3723.021,2048.589C3723.299,2049.146,3723.668,2049.653,3724.107,2050.092L3724.109,2050.094L3724.122,2050.108C3724.264,2050.249,3724.414,2050.383,3724.570,2050.509C3724.731,2050.638,3724.900,2050.761,3725.075,2050.873C3725.974,2051.450,3727.045,2051.784,3728.192,2051.784L3728.195,2051.784L3728.195,2051.785C3728.993,2051.785,3729.753,2051.623,3730.443,2051.330C3730.558,2051.282,3730.668,2051.231,3730.775,2051.178C3731.332,2050.899,3731.838,2050.531,3732.277,2050.092L3732.280,2050.089L3732.291,2050.079C3732.369,2050.000,3732.444,2049.921,3732.514,2049.842C3732.584,2049.764,3732.657,2049.676,3732.732,2049.581C3733.094,2049.121,3733.388,2048.607,3733.598,2048.053C3733.622,2047.988,3733.665,2047.936,3733.719,2047.901L3737.758,2044.707C3737.893,2044.600,3738.089,2044.623,3738.195,2044.758C3738.233,2044.806,3738.254,2044.861,3738.260,2044.917L3738.262,2044.917L3738.264,2044.941L3738.265,2044.957L3738.278,2045.091L3738.278,2045.095L3738.279,2045.095L3738.291,2045.240L3738.291,2045.242C3738.310,2045.499,3738.320,2045.753,3738.320,2046.007L3738.320,2046.010L3738.319,2046.010C3738.318,2047.407,3738.035,2048.739,3737.523,2049.950C3737.440,2050.145,3737.350,2050.339,3737.254,2050.532C3736.762,2051.514,3736.118,2052.404,3735.353,2053.169L3735.351,2053.171L3735.334,2053.186C3735.082,2053.436,3734.817,2053.675,3734.541,2053.898C3734.258,2054.125,3733.962,2054.339,3733.657,2054.535C3732.079,2055.547,3730.204,2056.135,3728.192,2056.135L3728.188,2056.135L3728.188,2056.134C3726.791,2056.133,3725.459,2055.850,3724.249,2055.337C3724.054,2055.255,3723.859,2055.165,3723.667,2055.069C3722.685,2054.577,3721.795,2053.933,3721.030,2053.168L3721.028,2053.166L3721.010,2053.147C3720.760,2052.896,3720.523,2052.631,3720.301,2052.356C3720.073,2052.073,3719.860,2051.777,3719.663,2051.471C3718.651,2049.895,3718.063,2048.019,3718.063,2046.007L3718.063,2046.003L3718.064,2046.003C3718.065,2044.606,3718.349,2043.275,3718.860,2042.064C3718.943,2041.869,3719.033,2041.675,3719.129,2041.482C3719.620,2040.502,3720.264,2039.612,3721.029,2038.846L3721.030,2038.846L3721.029,2038.845L3721.031,2038.843C3721.285,2038.590,3721.556,2038.347,3721.842,2038.116C3722.125,2037.888,3722.420,2037.675,3722.726,2037.479C3724.305,2036.466,3726.181,2035.878,3728.192,2035.878ZZM3728.722,2040.251C3728.559,2040.231,3728.439,2040.086,3728.449,2039.921L3728.722,2040.251ZZM3728.192,2024.852L3728.192,2024.852ZL3728.192,2024.852ZC3730.090,2024.854,3731.923,2025.103,3733.665,2025.568C3733.948,2025.644,3734.230,2025.725,3734.509,2025.813C3735.943,2026.260,3737.313,2026.858,3738.600,2027.587C3738.750,2027.672,3738.803,2027.863,3738.718,2028.012C3738.710,2028.025,3738.702,2028.038,3738.692,2028.050L3738.690,2028.052L3736.371,2031.027C3736.274,2031.151,3736.101,2031.182,3735.969,2031.106L3735.961,2031.102C3735.647,2030.938,3735.320,2030.779,3734.980,2030.630C3734.637,2030.479,3734.294,2030.340,3733.949,2030.214C3732.155,2029.559,3730.215,2029.202,3728.192,2029.202L3728.188,2029.202L3728.188,2029.201C3725.869,2029.201,3723.659,2029.672,3721.649,2030.523C3721.332,2030.657,3721.009,2030.806,3720.683,2030.968L3720.659,2030.980C3719.044,2031.791,3717.577,2032.856,3716.309,2034.124L3716.307,2034.126L3716.294,2034.138C3715.874,2034.559,3715.475,2035.005,3715.101,2035.469C3714.723,2035.938,3714.369,2036.429,3714.043,2036.938C3712.363,2039.553,3711.389,2042.666,3711.389,2046.007L3711.389,2046.010L3711.388,2046.010C3711.388,2048.329,3711.859,2050.540,3712.709,2052.550C3712.848,2052.878,3712.997,2053.201,3713.154,2053.515C3713.966,2055.139,3715.036,2056.615,3716.310,2057.889L3716.313,2057.891C3716.741,2058.320,3717.190,2058.723,3717.656,2059.098C3718.124,2059.476,3718.615,2059.830,3719.124,2060.157C3721.740,2061.837,3724.853,2062.811,3728.193,2062.811L3728.196,2062.811L3728.196,2062.812C3730.515,2062.812,3732.726,2062.341,3734.736,2061.491C3735.065,2061.351,3735.388,2061.203,3735.702,2061.045C3737.326,2060.233,3738.801,2059.164,3740.076,2057.889L3740.078,2057.887C3740.506,2057.458,3740.910,2057.009,3741.285,2056.544C3741.663,2056.074,3742.017,2055.584,3742.343,2055.075C3744.024,2052.459,3744.998,2049.346,3744.998,2046.007L3744.997,2046.007L3744.997,2045.999L3744.998,2045.999C3744.998,2044.962,3744.903,2043.945,3744.723,2042.960C3744.696,2042.812,3744.664,2042.651,3744.627,2042.480C3744.452,2041.660,3744.218,2040.865,3743.931,2040.100C3743.880,2039.963,3743.931,2039.812,3744.047,2039.733L3747.071,2037.342C3747.206,2037.235,3747.401,2037.258,3747.508,2037.393C3747.524,2037.414,3747.536,2037.435,3747.547,2037.457L3747.549,2037.463L3747.551,2037.467L3747.552,2037.467C3747.709,2037.824,3747.861,2038.195,3748.006,2038.580C3748.148,2038.961,3748.280,2039.342,3748.398,2039.725C3749.015,2041.711,3749.347,2043.820,3749.347,2046.006L3749.347,2046.009L3749.346,2046.009C3749.346,2048.929,3748.753,2051.711,3747.683,2054.241C3747.510,2054.650,3747.322,2055.056,3747.122,2055.457C3746.097,2057.506,3744.751,2059.364,3743.151,2060.964L3743.148,2060.966L3743.136,2060.977C3742.603,2061.509,3742.043,2062.013,3741.456,2062.485C3740.866,2062.962,3740.249,2063.407,3739.609,2063.817C3736.314,2065.933,3732.395,2067.160,3728.192,2067.160L3728.188,2067.160C3725.269,2067.160,3722.487,2066.568,3719.957,2065.498C3719.547,2065.324,3719.141,2065.137,3718.741,2064.936C3716.692,2063.911,3714.833,2062.566,3713.233,2060.965L3713.230,2060.963L3713.215,2060.947C3712.685,2060.416,3712.183,2059.856,3711.712,2059.271C3711.235,2058.680,3710.791,2058.063,3710.379,2057.423C3708.264,2054.129,3707.036,2050.210,3707.036,2046.007L3707.036,2046.003L3707.037,2046.003C3707.038,2043.084,3707.630,2040.301,3708.701,2037.771C3708.874,2037.362,3709.061,2036.956,3709.261,2036.556C3710.285,2034.508,3711.632,2032.650,3713.232,2031.049L3713.233,2031.049L3713.232,2031.048L3713.234,2031.046L3713.248,2031.033C3713.780,2030.502,3714.341,2029.999,3714.926,2029.527C3715.517,2029.051,3716.134,2028.606,3716.773,2028.195C3720.069,2026.080,3723.989,2024.852,3728.192,2024.852ZZ" style="fill:#ffffff">
      </path>
    </g>
  </g>
</svg>