<svg width="54.685" xmlns="http://www.w3.org/2000/svg" height="64" id="screenshot-0953e374-dd61-808b-8004-bc227530543c" viewBox="4144.987 2014.007 54.685 64" style="-webkit-print-color-adjust::exact" xmlns:xlink="http://www.w3.org/1999/xlink" fill="none" version="1.1">
  <g id="shape-0953e374-dd61-808b-8004-bc227530543c" data-testid="svg-path">
    <g class="fills" id="fills-0953e374-dd61-808b-8004-bc227530543c">
      <path d="M4145.294,2064.528C4144.528,2067.517,4145.221,2070.887,4147.070,2073.783C4149.435,2061.470,4163.929,2066.705,4156.487,2078.007C4162.929,2077.486,4166.409,2072.512,4166.273,2066.387C4166.211,2063.502,4166.273,2061.934,4166.726,2060.621C4166.938,2060.027,4167.231,2059.464,4167.596,2058.949C4167.288,2058.221,4167.127,2057.439,4167.122,2056.647L4167.122,2056.496C4167.135,2055.593,4167.349,2054.703,4167.747,2053.892L4163.877,2050.127L4162.804,2051.548C4161.753,2052.800,4160.592,2053.955,4159.336,2055.002C4158.591,2055.467,4157.787,2055.830,4156.945,2056.080C4151.758,2057.856,4146.888,2058.335,4145.294,2064.528ZZM4175.586,2053.590L4152.669,2031.278L4149.544,2030.726C4149.169,2030.655,4148.825,2030.474,4148.554,2030.205L4145.893,2027.601C4145.534,2027.249,4145.328,2026.770,4145.321,2026.267C4145.314,2025.764,4145.507,2025.279,4145.857,2024.918L4149.070,2021.673C4149.425,2021.319,4149.907,2021.120,4150.409,2021.120C4150.910,2021.120,4151.392,2021.319,4151.747,2021.673L4154.107,2024.012C4154.371,2024.271,4154.552,2024.603,4154.627,2024.965L4155.669,2028.772L4178.320,2050.877L4180.627,2048.554C4180.661,2048.519,4180.702,2048.492,4180.747,2048.473C4180.791,2048.454,4180.839,2048.444,4180.888,2048.444C4180.936,2048.444,4180.984,2048.454,4181.029,2048.473C4181.074,2048.492,4181.114,2048.519,4181.148,2048.554L4182.653,2050.043C4182.717,2050.105,4182.756,2050.189,4182.763,2050.278C4182.825,2050.741,4182.862,2051.116,4182.898,2051.434C4182.976,2052.210,4183.018,2052.601,4183.159,2052.736C4183.299,2052.871,4183.679,2052.892,4184.435,2052.944C4184.758,2052.944,4185.148,2052.996,4185.669,2053.048C4185.754,2053.055,4185.834,2053.092,4185.893,2053.153L4197.466,2064.819C4198.401,2065.581,4199.084,2066.606,4199.426,2067.762C4199.768,2068.919,4199.753,2070.151,4199.383,2071.298C4199.106,2072.155,4198.646,2072.940,4198.034,2073.601C4197.427,2074.261,4196.674,2074.769,4195.836,2075.085C4193.883,2075.809,4191.440,2075.429,4189.133,2073.101L4178.075,2061.923C4178.015,2061.861,4177.976,2061.781,4177.966,2061.694C4177.872,2061.064,4177.815,2060.554,4177.768,2060.132C4177.669,2059.293,4177.617,2058.856,4177.450,2058.694C4177.284,2058.533,4176.794,2058.502,4175.815,2058.470C4175.476,2058.470,4175.081,2058.470,4174.617,2058.423C4174.527,2058.419,4174.442,2058.382,4174.377,2058.319L4172.898,2056.856C4172.830,2056.787,4172.791,2056.693,4172.791,2056.595C4172.791,2056.498,4172.830,2056.404,4172.898,2056.335L4175.586,2053.590ZL4175.586,2053.590ZZM4181.596,2061.215C4181.510,2061.130,4181.442,2061.028,4181.395,2060.917C4181.349,2060.805,4181.325,2060.685,4181.325,2060.564C4181.325,2060.443,4181.349,2060.323,4181.395,2060.211C4181.442,2060.100,4181.510,2059.998,4181.596,2059.913C4181.770,2059.740,4182.005,2059.643,4182.250,2059.643C4182.495,2059.643,4182.730,2059.740,4182.903,2059.913L4192.903,2070.048C4193.078,2070.221,4193.176,2070.456,4193.177,2070.701C4193.178,2070.946,4193.081,2071.182,4192.909,2071.356C4192.736,2071.530,4192.501,2071.628,4192.256,2071.629C4192.011,2071.630,4191.775,2071.534,4191.601,2071.361L4181.596,2061.215ZZM4184.346,2058.434C4184.172,2058.262,4184.074,2058.028,4184.072,2057.783C4184.071,2057.538,4184.166,2057.303,4184.338,2057.129C4184.510,2056.955,4184.744,2056.857,4184.989,2056.855C4185.234,2056.854,4185.469,2056.949,4185.643,2057.121L4195.669,2067.267C4195.755,2067.352,4195.824,2067.454,4195.871,2067.565C4195.918,2067.677,4195.942,2067.797,4195.943,2067.918C4195.944,2068.039,4195.921,2068.159,4195.875,2068.271C4195.829,2068.384,4195.762,2068.486,4195.677,2068.572C4195.592,2068.658,4195.490,2068.727,4195.379,2068.774C4195.267,2068.821,4195.147,2068.845,4195.026,2068.846C4194.905,2068.847,4194.785,2068.824,4194.673,2068.778C4194.560,2068.732,4194.458,2068.665,4194.372,2068.580L4184.346,2058.434ZZM4179.883,2042.840L4182.976,2038.793C4186.700,2033.736,4196.409,2036.710,4198.789,2027.465C4199.549,2024.496,4198.857,2021.132,4197.023,2018.231C4194.659,2030.543,4180.169,2025.309,4187.612,2014.007C4181.169,2014.528,4177.690,2019.502,4177.825,2025.627C4177.888,2028.314,4178.643,2030.507,4176.096,2033.913L4173.112,2037.877L4178.581,2043.205C4178.999,2043.034,4179.436,2042.912,4179.883,2042.840ZZ" fill-rule="evenodd" clip-rule="evenodd" style="fill:#ffffff">
      </path>
    </g>
  </g>
</svg>